<svg width="151" height="23" viewBox="0 0 151 23" fill="none" xmlns="http://www.w3.org/2000/svg">
<circle cx="112" cy="14" r="9" fill="#2846DC"/>
<path d="M6.432 22.752C5.38667 22.752 4.43733 22.592 3.584 22.272C2.752 21.952 2.02667 21.5253 1.408 20.992C0.810667 20.4373 0.341333 19.8293 0 19.168L1.44 18.016C1.84533 18.912 2.47467 19.648 3.328 20.224C4.20267 20.7787 5.23733 21.056 6.432 21.056C7.56267 21.056 8.46933 20.8107 9.152 20.32C9.83467 19.808 10.176 19.1147 10.176 18.24C10.176 17.5147 9.96267 16.96 9.536 16.576C9.13067 16.1707 8.59733 15.8507 7.936 15.616C7.296 15.3813 6.592 15.1787 5.824 15.008C5.22667 14.8587 4.62933 14.688 4.032 14.496C3.43467 14.2827 2.89067 14.0267 2.4 13.728C1.93067 13.408 1.55733 13.0027 1.28 12.512C1.00267 12.0213 0.864 11.4133 0.864 10.688C0.864 9.45067 1.344 8.448 2.304 7.68C3.28533 6.912 4.55467 6.528 6.112 6.528C7.28533 6.528 8.352 6.784 9.312 7.296C10.2933 7.78667 11.0507 8.544 11.584 9.568L10.272 10.528C9.824 9.696 9.22667 9.09867 8.48 8.736C7.75467 8.352 6.944 8.16 6.048 8.16C5.088 8.16 4.288 8.37333 3.648 8.8C3.02933 9.22667 2.72 9.80267 2.72 10.528C2.72 11.0613 2.86933 11.4987 3.168 11.84C3.46667 12.16 3.89333 12.4267 4.448 12.64C5.00267 12.8533 5.65333 13.0453 6.4 13.216C7.08267 13.3653 7.75467 13.5467 8.416 13.76C9.09867 13.9733 9.71733 14.2507 10.272 14.592C10.848 14.912 11.296 15.3493 11.616 15.904C11.9573 16.4587 12.128 17.1627 12.128 18.016C12.128 18.976 11.8933 19.8187 11.424 20.544C10.9547 21.248 10.2933 21.792 9.44 22.176C8.58667 22.56 7.584 22.752 6.432 22.752Z" fill="white"/>
<path d="M29.662 22.752C28.4887 22.752 27.4433 22.5493 26.526 22.144C25.63 21.7387 24.8833 21.1733 24.286 20.448C23.6887 19.7227 23.23 18.8693 22.91 17.888C22.6113 16.9067 22.462 15.8613 22.462 14.752C22.462 13.6213 22.6113 12.5653 22.91 11.584C23.2087 10.5813 23.646 9.70667 24.222 8.96C24.8193 8.192 25.5447 7.59467 26.398 7.168C27.2727 6.74133 28.2753 6.528 29.406 6.528C30.6007 6.528 31.6247 6.74133 32.478 7.168C33.3527 7.57333 34.0567 8.13867 34.59 8.864C35.1447 9.568 35.55 10.3467 35.806 11.2C36.0833 12.0533 36.222 12.9173 36.222 13.792C36.222 13.9627 36.2113 14.1867 36.19 14.464C36.19 14.7413 36.1687 14.976 36.126 15.168H24.446C24.4887 16.9813 24.9687 18.3893 25.886 19.392C26.8247 20.3947 28.0833 20.896 29.662 20.896C30.6647 20.896 31.518 20.7467 32.222 20.448C32.9473 20.128 33.6407 19.6053 34.302 18.88L35.742 20.16C35.1447 20.7787 34.5367 21.28 33.918 21.664C33.2993 22.0267 32.638 22.304 31.934 22.496C31.2513 22.6667 30.494 22.752 29.662 22.752ZM34.206 14.144C34.2487 13.9733 34.27 13.8027 34.27 13.632C34.27 13.44 34.27 13.2587 34.27 13.088C34.27 12.5333 34.174 11.968 33.982 11.392C33.8113 10.816 33.534 10.2933 33.15 9.824C32.766 9.35467 32.2647 8.97067 31.646 8.672C31.0273 8.37333 30.2913 8.224 29.438 8.224C28.4567 8.224 27.5927 8.46933 26.846 8.96C26.1207 9.45067 25.5553 10.1013 25.15 10.912C24.7447 11.7227 24.51 12.64 24.446 13.664H34.878L34.206 14.144Z" fill="white"/>
<path d="M50.368 22.752C49.472 22.752 48.7573 22.4747 48.224 21.92C47.6907 21.344 47.424 20.4373 47.424 19.2V0.224001H49.44V18.848C49.44 19.5733 49.5787 20.096 49.856 20.416C50.1333 20.736 50.5067 20.896 50.976 20.896C51.1893 20.896 51.424 20.8747 51.68 20.832C51.936 20.768 52.2027 20.6933 52.48 20.608V22.336C52.1173 22.464 51.744 22.56 51.36 22.624C50.9973 22.7093 50.6667 22.752 50.368 22.752Z" fill="white"/>
<path d="M63.465 22.528V8.352H59.977V6.752H63.497V4.48C63.497 3.392 63.6677 2.51733 64.009 1.856C64.3717 1.19467 64.8623 0.725334 65.481 0.448C66.121 0.149333 66.8357 0 67.625 0C68.1583 0 68.6383 0.0533333 69.065 0.16C69.4917 0.245333 69.897 0.394667 70.281 0.608L69.609 2.144C69.353 1.99467 69.0757 1.888 68.777 1.824C68.4997 1.73867 68.1903 1.696 67.849 1.696C67.0597 1.696 66.4623 1.94133 66.057 2.432C65.673 2.90133 65.481 3.584 65.481 4.48V6.752H69.321V8.352H65.481V22.528H63.465Z" fill="white"/>
<path d="M87.2763 22.752C86.2523 22.752 85.3136 22.5493 84.4603 22.144C83.6283 21.7173 82.9243 21.1307 82.3483 20.384C81.7723 19.6373 81.3456 18.7733 81.0683 17.792L81.7083 17.568V22.528H79.6923V0.224001H81.7083V11.68L81.1643 11.36C81.3989 10.4427 81.8043 9.62133 82.3803 8.896C82.9563 8.17067 83.6603 7.59467 84.4923 7.168C85.3243 6.74133 86.2523 6.528 87.2763 6.528C88.6203 6.528 89.8256 6.86933 90.8923 7.552C91.9803 8.21333 92.8443 9.152 93.4843 10.368C94.1243 11.584 94.4443 13.0027 94.4443 14.624C94.4443 16.16 94.1349 17.5467 93.5163 18.784C92.9189 20 92.0763 20.9707 90.9883 21.696C89.9216 22.4 88.6843 22.752 87.2763 22.752ZM86.9563 20.896C88.0229 20.896 88.9616 20.6293 89.7723 20.096C90.6043 19.5413 91.2549 18.7947 91.7243 17.856C92.1936 16.9173 92.4283 15.84 92.4283 14.624C92.4283 13.408 92.1936 12.3307 91.7243 11.392C91.2549 10.4533 90.6043 9.71733 89.7723 9.184C88.9616 8.65067 88.0229 8.384 86.9563 8.384C85.8896 8.384 84.9509 8.65067 84.1403 9.184C83.3296 9.71733 82.6896 10.4533 82.2203 11.392C81.7723 12.3307 81.5483 13.408 81.5483 14.624C81.5483 15.84 81.7723 16.9173 82.2203 17.856C82.6896 18.7947 83.3296 19.5413 84.1403 20.096C84.9509 20.6293 85.8896 20.896 86.9563 20.896Z" fill="white"/>
<path d="M132.653 22.752C131.757 22.752 131.042 22.4747 130.509 21.92C129.976 21.344 129.709 20.4373 129.709 19.2V0.224001H131.725V18.848C131.725 19.5733 131.864 20.096 132.141 20.416C132.418 20.736 132.792 20.896 133.261 20.896C133.474 20.896 133.709 20.8747 133.965 20.832C134.221 20.768 134.488 20.6933 134.765 20.608V22.336C134.402 22.464 134.029 22.56 133.645 22.624C133.282 22.7093 132.952 22.752 132.653 22.752Z" fill="white"/>
<path d="M147.943 22.752C147.047 22.752 146.332 22.4747 145.799 21.92C145.266 21.344 144.999 20.4373 144.999 19.2V0.224001H147.015V18.848C147.015 19.5733 147.154 20.096 147.431 20.416C147.708 20.736 148.082 20.896 148.551 20.896C148.764 20.896 148.999 20.8747 149.255 20.832C149.511 20.768 149.778 20.6933 150.055 20.608V22.336C149.692 22.464 149.319 22.56 148.935 22.624C148.572 22.7093 148.242 22.752 147.943 22.752Z" fill="white"/>
</svg>
